<svg width="100" height="100" viewBox="0 0 100 100" fill="none" xmlns="http://www.w3.org/2000/svg">
<path d="M93.4863 71.4063C93.4082 71.2988 93.3105 71.2012 93.2031 71.123L74.1895 57.0313C73.5938 56.5918 72.7539 56.7188 72.3145 57.3145C72.1484 57.5488 72.0508 57.8223 72.0508 58.1152V86.2891C72.0508 87.0312 72.6465 87.627 73.3887 87.627C73.6719 87.627 73.9551 87.5391 74.1895 87.3633L93.2129 73.2715C93.7988 72.832 93.9258 71.9922 93.4863 71.4063ZM41.7285 63.1445C41.7285 58.6816 39.7656 56.0156 36.6797 56.0156C33.5938 56.0156 31.6309 58.6816 31.6309 63.1445C31.6309 67.8027 33.5938 70.6055 36.6797 70.6055C39.7656 70.6055 41.7285 67.8027 41.7285 63.1445Z" fill="#1296DB"/>
<path d="M84.4727 59.1504C85.2148 59.1504 85.8105 58.5449 85.8105 57.8027V12.3145C85.8008 7.69531 82.0508 3.95508 77.4316 3.93555H14.6289C10.0098 3.94531 6.26953 7.69531 6.25 12.3145V87.6856C6.25977 92.3047 10.0098 96.0449 14.6289 96.0645H67.8516V49.8145C67.8516 49.5313 67.9395 49.248 68.1152 49.0137C68.5547 48.418 69.3945 48.291 69.9902 48.7305L83.6719 58.8867C83.9062 59.0625 84.1895 59.1504 84.4727 59.1504ZM17.1387 74.0039C14.3652 74.0039 11.582 72.9102 9.56055 70.9766L11.9434 68.1152C13.4277 69.4922 15.3906 70.4199 17.2168 70.4199C19.375 70.4199 20.5273 69.4922 20.5273 68.0371C20.5273 66.4941 19.2676 66.0156 17.4121 65.2344L14.6387 64.0527C12.5391 63.1836 10.4297 61.5039 10.4297 58.4668C10.4297 55.0781 13.4082 52.4609 17.6074 52.4609C20.0195 52.4609 22.4316 53.418 24.1211 55.127L22.0215 57.7344C20.7031 56.6406 19.3262 56.0254 17.6172 56.0254C15.791 56.0254 14.6191 56.8359 14.6191 58.2129C14.6191 59.6973 16.1035 60.2344 17.8711 60.9375L20.5957 62.0898C23.125 63.125 24.7754 64.7266 24.7754 67.7246C24.7656 71.1133 21.9336 74.0039 17.1387 74.0039ZM13.4863 31.5625C13.457 30.4102 14.375 29.4531 15.5371 29.4238H38.291C39.4434 29.4238 40.3809 30.3613 40.3809 31.5137C40.3809 32.666 39.4434 33.6035 38.291 33.6035H15.5371C14.4141 33.584 13.5059 32.6855 13.4863 31.5625ZM43.3887 79.248C39.1504 79.248 36.2109 76.9727 34.7754 73.8379C30.3418 72.998 27.3926 69.0723 27.3926 63.1543C27.3926 56.3965 31.1816 52.4707 36.6797 52.4707C42.1777 52.4707 45.9668 56.4258 45.9668 63.1543C45.9668 68.8184 43.2715 72.6367 39.1504 73.7012C40.1074 75.2734 41.9824 75.918 43.8672 75.918C44.7656 75.918 45.5469 75.7813 46.1426 75.5859L46.875 78.6426C46.1621 78.9648 44.9023 79.248 43.3887 79.248ZM46.6602 24.0527H15.5371C14.3848 24.0234 13.4668 23.0664 13.4863 21.9141C13.5059 20.791 14.4141 19.8926 15.5371 19.8633H46.6699C47.8223 19.8926 48.7402 20.8496 48.7207 22.002C48.6914 23.1348 47.7832 24.0332 46.6602 24.0527ZM62.5879 73.6133H50.0195V52.8516H54.1699V70.127H62.5879V73.6133Z" fill="#1296DB"/>
</svg>
